<svg width="22" height="22" viewBox="0 0 22 22" fill="none" xmlns="http://www.w3.org/2000/svg">
<path d="M1.8335 18.3334H3.66683M3.66683 18.3334H9.16683M3.66683 18.3334V10.4978C3.66683 10.0081 3.66683 9.76305 3.72639 9.53507C3.77917 9.33313 3.86647 9.14198 3.98372 8.96925C4.11603 8.77434 4.29992 8.61271 4.66854 8.29017L9.06999 4.4389C9.75331 3.84096 10.095 3.54197 10.4799 3.42817C10.8192 3.32782 11.1809 3.32782 11.5203 3.42817C11.9054 3.54205 12.2476 3.84133 12.9319 4.44018L17.3319 8.29017C17.7005 8.6127 17.8845 8.77435 18.0169 8.96925C18.1341 9.14198 18.2207 9.33313 18.2735 9.53507C18.333 9.76305 18.3335 10.0081 18.3335 10.4978V18.3334M9.16683 18.3334H12.8335M9.16683 18.3334V14.6668C9.16683 13.6542 9.98761 12.8334 11.0002 12.8334C12.0127 12.8334 12.8335 13.6542 12.8335 14.6668V18.3334M18.3335 18.3334H12.8335M18.3335 18.3334H20.1668" stroke="black" strokeWidth="2" strokeLinecap="round" strokeLinejoin="round"/>
</svg>
